# xmcd
#
# Track frame offsets:
#	150
#	18130
#	47459
#	69384
#	96560
#	119945
#	147210
#	169725
#	187408
#	209193
#
# Disc length: 3253 seconds
#
# Revision: 2
# Processed by: cddbd v1.5.2PL0 Copyright (c) Steve Scherf et al.
# Submitted via: EZCDAudioConverter 2.1.7.1
#
DISCID=9e0cb30a
DTITLE=Roy Budd - Get Carter 2/2
DYEAR=2001
DGENRE=
TTITLE0=Breakneck - Breakneck 7'' Edit
TTITLE1=Rob's Old School - Rob's Old School Mix
TTITLE2=Deadly Avenger - Deadly Avenger Remix
TTITLE3=Dope On A Rope - Dope On A Rope - 12''
TTITLE4=Gentleman Thief - Gentlemen Thief Remix
TTITLE5=De Few - De Few - 2 Smoking Barrels 12'' Radio Edit
TTITLE6=Full Vision - Full Vision - An/Dy Carter Express Mix
TTITLE7=Lionrock - Lionrock Remix
TTITLE8=Andy H. and Full Vision - ''Just Call Me Full'' Remix
TTITLE9=Breakneck - Breakneck - ''Dirtbox'' Featuring Phil Dirtbox
EXTD=
EXTT0=
EXTT1=
EXTT2=
EXTT3=
EXTT4=
EXTT5=
EXTT6=
EXTT7=
EXTT8=
EXTT9=
PLAYORDER=
